<?xml version="1.0" encoding="UTF-8" standalone="no"?>
<!-- Created with Inkscape (http://www.inkscape.org/) -->

<svg
   xmlns:dc="http://purl.org/dc/elements/1.1/"
   xmlns:cc="http://creativecommons.org/ns#"
   xmlns:rdf="http://www.w3.org/1999/02/22-rdf-syntax-ns#"
   xmlns:svg="http://www.w3.org/2000/svg"
   xmlns="http://www.w3.org/2000/svg"
   xmlns:sodipodi="http://sodipodi.sourceforge.net/DTD/sodipodi-0.dtd"
   xmlns:inkscape="http://www.inkscape.org/namespaces/inkscape"
   id="svg2"
   version="1.1"
   inkscape:version="0.48.5 r10040"
   width="89.507523"
   height="77.522064"
   xml:space="preserve"
   sodipodi:docname="AGDSN_vektorgrafik_ueberarbeitet-white-trans.eps"><metadata
     id="metadata8"><rdf:RDF><cc:Work
         rdf:about=""><dc:format>image/svg+xml</dc:format><dc:type
           rdf:resource="http://purl.org/dc/dcmitype/StillImage" /><dc:title></dc:title></cc:Work></rdf:RDF></metadata><defs
     id="defs6"><filter
       inkscape:collect="always"
       id="filter4482"
       color-interpolation-filters="sRGB"><feGaussianBlur
         inkscape:collect="always"
         stdDeviation="15.893164"
         id="feGaussianBlur4484" /></filter></defs><sodipodi:namedview
     pagecolor="#000000"
     bordercolor="#666666"
     borderopacity="1"
     objecttolerance="10"
     gridtolerance="10"
     guidetolerance="10"
     inkscape:pageopacity="1"
     inkscape:pageshadow="2"
     inkscape:window-width="1920"
     inkscape:window-height="1017"
     id="namedview4"
     showgrid="false"
     fit-margin-top="0"
     fit-margin-left="0"
     fit-margin-right="0"
     fit-margin-bottom="0"
     units="cm"
     inkscape:zoom="4.1923077"
     inkscape:cx="84.133487"
     inkscape:cy="30.967347"
     inkscape:window-x="0"
     inkscape:window-y="41"
     inkscape:window-maximized="1"
     inkscape:current-layer="g12" /><g
     id="g10"
     inkscape:groupmode="layer"
     inkscape:label="ink_ext_XXXXXX"
     transform="matrix(1.25,0,0,-1.25,-52.99779,109.79633)"><g
       id="g12"
       transform="scale(0.1,0.1)"><g
         id="g4444"
         style="filter:url(#filter4482)"
         transform="translate(455.94172,294.98332)"><path
           id="path14"
           style="fill:none;stroke:#ffffff;stroke-width:10.0010004;stroke-linecap:butt;stroke-linejoin:miter;stroke-miterlimit:10;stroke-opacity:1;stroke-dasharray:none"
           d="M 245.598,300.77 562.695,142.102"
           inkscape:connector-curvature="0" /><path
           id="path16"
           style="fill:none;stroke:#ffffff;stroke-width:10.0010004;stroke-linecap:butt;stroke-linejoin:miter;stroke-miterlimit:10;stroke-opacity:1;stroke-dasharray:none"
           d="M 310.145,23.6836 607.004,380.938"
           inkscape:connector-curvature="0" /><path
           id="path18"
           style="fill:none;stroke:#ffffff;stroke-width:10.0010004;stroke-linecap:butt;stroke-linejoin:miter;stroke-miterlimit:10;stroke-opacity:1;stroke-dasharray:none"
           d="M 45.332,148.32 617.434,371.426"
           inkscape:connector-curvature="0" /><path
           id="path20"
           style="fill:none;stroke:#ffffff;stroke-width:10.0010004;stroke-linecap:butt;stroke-linejoin:miter;stroke-miterlimit:10;stroke-opacity:1;stroke-dasharray:none"
           d="M 302.98,505.82 570.496,130.391"
           inkscape:connector-curvature="0" /><path
           id="path70"
           style="fill:#ffffff;fill-opacity:1;fill-rule:nonzero;stroke:none"
           d="m 225.664,339.043 c 19.16,10.613 43.301,3.684 53.914,-15.481 10.625,-19.16 3.703,-43.289 -15.457,-53.906 -19.16,-10.613 -43.293,-3.679 -53.918,15.481 -10.613,19.16 -3.699,43.293 15.461,53.906"
           inkscape:connector-curvature="0" /><path
           id="path72"
           style="fill:#ffffff;fill-opacity:1;fill-rule:nonzero;stroke:none"
           d="m 283.672,540.273 c 19.16,10.606 43.301,3.684 53.918,-15.476 10.625,-19.16 3.699,-43.293 -15.461,-53.906 -19.149,-10.618 -43.289,-3.684 -53.914,15.476 -10.617,19.16 -3.695,43.293 15.457,53.906"
           inkscape:connector-curvature="0" /><path
           id="path74"
           style="fill:#ffffff;fill-opacity:1;fill-rule:nonzero;stroke:none"
           d="m 26.6211,183.555 c 19.1601,10.617 43.3008,3.691 53.9141,-15.469 10.625,-19.16 3.7031,-43.301 -15.4571,-53.906 -19.1523,-10.618 -43.2929,-3.692 -53.9179,15.468 -10.613325,19.161 -3.69145,43.301 15.4609,53.907"
           inkscape:connector-curvature="0" /><path
           id="path76"
           style="fill:#ffffff;fill-opacity:1;fill-rule:nonzero;stroke:none"
           d="m 587.062,404.773 c 19.161,10.61 43.297,3.684 53.915,-15.476 10.617,-19.16 3.703,-43.289 -15.457,-53.906 -19.165,-10.618 -43.301,-3.68 -53.918,15.476 -10.618,19.16 -3.704,43.293 15.46,53.906"
           inkscape:connector-curvature="0" /><path
           id="path78"
           style="fill:#ffffff;fill-opacity:1;fill-rule:nonzero;stroke:none"
           d="m 298.953,75.7148 c 19.16,10.6016 43.293,3.6797 53.918,-15.4804 10.613,-19.1602 3.691,-43.293 -15.461,-53.90628 -19.156,-10.61328 -43.301,-3.68359 -53.914,15.48048 -10.625,19.1602 -3.699,43.2891 15.457,53.9062"
           inkscape:connector-curvature="0" /><path
           id="path80"
           style="fill:#ffffff;fill-opacity:1;fill-rule:nonzero;stroke:none"
           d="m 548.469,169.148 c 19.148,10.618 43.289,3.684 53.914,-15.476 10.613,-19.16 3.691,-43.289 -15.457,-53.9064 -19.16,-10.6054 -43.305,-3.6797 -53.918,15.4764 -10.625,19.16 -3.699,43.293 15.461,53.906"
           inkscape:connector-curvature="0" /><path
           id="path82"
           style="fill:none;stroke:#ffffff;stroke-width:10.0010004;stroke-linecap:butt;stroke-linejoin:miter;stroke-miterlimit:10;stroke-opacity:1;stroke-dasharray:none"
           d="M 306.887,505.82 607.004,365.332"
           inkscape:connector-curvature="0" /><path
           id="path84"
           style="fill:none;stroke:#ffffff;stroke-width:10.0010004;stroke-linecap:butt;stroke-linejoin:miter;stroke-miterlimit:10;stroke-opacity:1;stroke-dasharray:none"
           d="M 603.098,365.332 566.602,142.102"
           inkscape:connector-curvature="0" /><path
           id="path86"
           style="fill:none;stroke:#ffffff;stroke-width:10.0010004;stroke-linecap:butt;stroke-linejoin:miter;stroke-miterlimit:10;stroke-opacity:1;stroke-dasharray:none"
           d="M 567.781,132.82 317.461,35.4688"
           inkscape:connector-curvature="0" /><path
           id="path88"
           style="fill:none;stroke:#ffffff;stroke-width:10.0010004;stroke-linecap:butt;stroke-linejoin:miter;stroke-miterlimit:10;stroke-opacity:1;stroke-dasharray:none"
           d="M 310.145,45.9375 249.766,297.246"
           inkscape:connector-curvature="0" /><path
           id="path90"
           style="fill:none;stroke:#ffffff;stroke-width:10.0010004;stroke-linecap:butt;stroke-linejoin:miter;stroke-miterlimit:10;stroke-opacity:1;stroke-dasharray:none"
           d="M 244.402,304.363 48.5547,146.152"
           inkscape:connector-curvature="0" /><path
           id="path92"
           style="fill:none;stroke:#ffffff;stroke-width:10.0010004;stroke-linecap:butt;stroke-linejoin:miter;stroke-miterlimit:10;stroke-opacity:1;stroke-dasharray:none"
           d="M 48.5547,146.152 310.145,35.7305"
           inkscape:connector-curvature="0" /><path
           id="path94"
           style="fill:none;stroke:#ffffff;stroke-width:10.0010004;stroke-linecap:butt;stroke-linejoin:miter;stroke-miterlimit:10;stroke-opacity:1;stroke-dasharray:none"
           d="M 603.098,380.938 249.766,309.297"
           inkscape:connector-curvature="0" /><path
           id="path96"
           style="fill:none;stroke:#ffffff;stroke-width:10.0010004;stroke-linecap:butt;stroke-linejoin:miter;stroke-miterlimit:10;stroke-opacity:1;stroke-dasharray:none"
           d="M 243.738,291.223 302.98,505.82"
           inkscape:connector-curvature="0" /><path
           id="path98"
           style="fill:none;stroke:#ffffff;stroke-width:10.0010004;stroke-linecap:butt;stroke-linejoin:miter;stroke-miterlimit:10;stroke-opacity:1;stroke-dasharray:none"
           d="M 570.496,130.391 47.8516,145.812"
           inkscape:connector-curvature="0" /><path
           id="path100"
           style="fill:none;stroke:#ffffff;stroke-width:10.0010004;stroke-linecap:butt;stroke-linejoin:miter;stroke-miterlimit:10;stroke-opacity:1;stroke-dasharray:none"
           d="M 328.223,35.7305 305.977,493.059"
           inkscape:connector-curvature="0" /></g></g></g></svg>